<svg xmlns="http://www.w3.org/2000/svg" version="1.1" xmlns:xlink="http://www.w3.org/1999/xlink" width="512" height="512" x="0" y="0" viewBox="0 0 60 60" style="enable-background:new 0 0 512 512" xml:space="preserve" class=""><g><path fill="#e50304" d="M45 6v4l-1 1H2l-1-1V6a3 3 0 0 1 3-3h38a3 3 0 0 1 3 3z" opacity="1" data-original="#ec5e69" class=""></path><path fill="#e9e9fb" d="M45 10v25L33 47H4a3 3 0 0 1-3-3V10z" opacity="1" data-original="#d9dde3" class=""></path><path fill="#287dc9" d="M29.83 24H36v.883a1.087 1.087 0 0 0 1.861.788l2.82-2.883a1.133 1.133 0 0 0 0-1.576l-2.82-2.883a1.087 1.087 0 0 0-1.861.788V20h-7a1.966 1.966 0 0 0-1.41.59L16.17 32H10v-.883a1.087 1.087 0 0 0-1.861-.788l-2.82 2.883a1.133 1.133 0 0 0 0 1.576l2.82 2.883A1.087 1.087 0 0 0 10 36.883V36h7a1.966 1.966 0 0 0 1.41-.59z" opacity="1" data-original="#287dc9" class=""></path><path fill="#666666" d="m37.51 38 3.17-3.21a1.129 1.129 0 0 0 0-1.58l-2.82-2.88a1.086 1.086 0 0 0-1.86.79V32h-6.17L18.41 20.59A1.966 1.966 0 0 0 17 20h-7v-.883a1.087 1.087 0 0 0-1.861-.788l-2.82 2.883a1.133 1.133 0 0 0 0 1.576l2.82 2.883A1.087 1.087 0 0 0 10 24.883V24h6.17l11.42 11.41A1.966 1.966 0 0 0 29 36h7v.88A1.094 1.094 0 0 0 37.06 38z" opacity="1" data-original="#666666" class=""></path><circle cx="45" cy="47" r="12" fill="#e50304" opacity="1" data-original="#4e98ec" class=""></circle><circle cx="45" cy="47" r="8" fill="#ffffff" opacity="1" data-original="#ffffff" class=""></circle><g fill="#373737"><path d="M4 48h28.051A12.994 12.994 0 1 0 46 34.051V6a4 4 0 0 0-4-4h-3V1a1 1 0 0 0-2 0v1h-4V1a1 1 0 0 0-2 0v1h-4V1a1 1 0 0 0-2 0v1h-4V1a1 1 0 0 0-2 0v1h-4V1a1 1 0 0 0-2 0v1H9V1a1 1 0 0 0-2 0v1H4a4 4 0 0 0-4 4v4a1 1 0 0 0 1 1h43v23.051a12.921 12.921 0 0 0-2.029.32 2.117 2.117 0 0 0-.576-1.86l-2.823-2.883a2.07 2.07 0 0 0-2.269-.47A2.1 2.1 0 0 0 35 31h-4.756l-3-3 3-3H35a2.106 2.106 0 0 0 1.308 1.845 2.065 2.065 0 0 0 2.265-.475l2.82-2.883a2.141 2.141 0 0 0 0-2.974l-2.819-2.882a2.062 2.062 0 0 0-2.266-.476A2.106 2.106 0 0 0 35 19h-6a2.973 2.973 0 0 0-2.117.883L23 23.764l-3.876-3.872A2.981 2.981 0 0 0 17 19h-6a2.106 2.106 0 0 0-1.308-1.845 2.064 2.064 0 0 0-2.265.475L4.6 20.513a2.141 2.141 0 0 0 0 2.974l2.819 2.882a2.065 2.065 0 0 0 2.266.476A2.106 2.106 0 0 0 11 25h4.759l3 3-3 3H11a2.106 2.106 0 0 0-1.308-1.845 2.062 2.062 0 0 0-2.265.475L4.6 32.513a2.141 2.141 0 0 0 0 2.974l2.819 2.882a2.063 2.063 0 0 0 2.266.476A2.106 2.106 0 0 0 11 37h6a2.973 2.973 0 0 0 2.117-.883L23 32.236l3.876 3.872A2.981 2.981 0 0 0 29 37h6a2.124 2.124 0 0 0 .457 1.2 12.937 12.937 0 0 0-3.406 7.8H4a2 2 0 0 1-2-2V14a1 1 0 0 0-2 0v30a4 4 0 0 0 4 4zM2 9V6a2 2 0 0 1 2-2h3v1a1 1 0 0 0 2 0V4h4v1a1 1 0 0 0 2 0V4h4v1a1 1 0 0 0 2 0V4h4v1a1 1 0 0 0 2 0V4h4v1a1 1 0 0 0 2 0V4h4v1a1 1 0 0 0 2 0V4h3a2 2 0 0 1 2 2v3zm26.306 12.288A.967.967 0 0 1 29 21h7a1 1 0 0 0 1-1v-.883c0-.027 0-.084.146-.089l2.82 2.883a.134.134 0 0 1 0 .178l-2.9 2.9a.1.1 0 0 1-.064-.11V24a1 1 0 0 0-1-1H29.83a1 1 0 0 0-.707.293l-3.3 3.3-1.412-1.411zM17.694 34.712A.967.967 0 0 1 17 35h-7a1 1 0 0 0-1 1v.883c0 .027 0 .084-.146.089l-2.82-2.883a.134.134 0 0 1 0-.178l2.9-2.9a.1.1 0 0 1 .064.11V32a1 1 0 0 0 1 1h6.17a1 1 0 0 0 .707-.293l3.3-3.3 1.412 1.411zM29 35a.975.975 0 0 1-.7-.3l-4.582-4.578-.008-.012-.012-.008-6.818-6.812a1 1 0 0 0-.71-.29H10a1 1 0 0 0-1 1v.883c0 .027 0 .084-.146.089l-2.82-2.883a.134.134 0 0 1 0-.178l2.9-2.9a.1.1 0 0 1 .064.11V20a1 1 0 0 0 1 1h7a.975.975 0 0 1 .7.3l4.582 4.578.008.012.012.008 6.818 6.812a1 1 0 0 0 .712.29H36a1 1 0 0 0 1-1v-.88c0-.043.007-.09.146-.091l2.819 2.88a.127.127 0 0 1 0 .182l-1.882 1.922a12.613 12.613 0 0 0-1.083.762V36a1 1 0 0 0-1-1zm16 1a11 11 0 1 1-11 11 11.013 11.013 0 0 1 11-11z" fill="#373737" opacity="1" data-original="#373737" class=""></path><path d="M38.636 53.364c.007.008.017.01.024.017a8.983 8.983 0 0 0 12.68 0c.007-.007.017-.009.024-.017s.01-.017.017-.024a8.983 8.983 0 0 0 0-12.68c-.007-.007-.009-.017-.017-.024s-.017-.01-.024-.017a8.983 8.983 0 0 0-12.68 0c-.007.007-.017.009-.024.017s-.01.017-.017.024a8.983 8.983 0 0 0 0 12.68c.007.007.009.017.017.024zM39 46h-.92a6.947 6.947 0 0 1 1.32-3.184l.649.649a1 1 0 0 0 1.414-1.414l-.649-.649A6.947 6.947 0 0 1 44 40.08V41a1 1 0 0 0 2 0v-.92a6.947 6.947 0 0 1 3.184 1.32l-.649.649a1 1 0 1 0 1.414 1.414l.649-.649A6.947 6.947 0 0 1 51.92 46H51a1 1 0 0 0 0 2h.92a6.947 6.947 0 0 1-1.32 3.184l-.649-.649a1 1 0 0 0-1.414 1.414l.649.649A6.947 6.947 0 0 1 46 53.92V53a1 1 0 0 0-2 0v.92a6.947 6.947 0 0 1-3.184-1.32l.649-.649a1 1 0 0 0-1.414-1.414l-.649.649A6.947 6.947 0 0 1 38.08 48H39a1 1 0 0 0 0-2z" fill="#373737" opacity="1" data-original="#373737" class=""></path><path d="M45.293 48.707a1 1 0 0 0 1.414-1.414l-.49-.49.678-1.356a1 1 0 0 0-1.79-.894l-1 2a1 1 0 0 0 .188 1.154z" fill="#373737" opacity="1" data-original="#373737" class=""></path></g></g></svg>