<svg xmlns="http://www.w3.org/2000/svg" version="1.1" xmlns:xlink="http://www.w3.org/1999/xlink" width="512" height="512" x="0" y="0" viewBox="0 0 510 510" style="enable-background:new 0 0 512 512" xml:space="preserve" class=""><g><path d="M410.148 169.999c-30.375 0-55 24.624-55 55 0 30.326 24.544 54.92 54.852 55h.148c30.375 0 55-24.625 55-55s-24.625-55-55-55z" style="fill-rule:evenodd;clip-rule:evenodd;" fill="#fdbeb9" data-original="#fdbeb9" class=""></path><path d="m337.495 279.999-28.165-48.783c-8.284-14.349-26.632-19.265-40.981-10.981s-19.265 26.632-10.981 40.981l36.75 63.653c6.325 10.956 16.807 14.8 28.358 14.8h87.671V280l-72.652-.001z" style="fill-rule:evenodd;clip-rule:evenodd;" fill="#e50304" data-original="#67ccd1" class="" opacity="1"></path><path d="m337.495 279.999-5.286-9.156c-16.782 15.661-28.927 36.268-34.176 59.393 6.323 6.879 15.028 9.434 24.444 9.434h87.671V280l-72.653-.001z" style="fill-rule:evenodd;clip-rule:evenodd;" fill="#ba0001" data-original="#27a2cc" class="" opacity="1"></path><path d="M210 399.999v-130H20v130h190z" style="fill-rule:evenodd;clip-rule:evenodd;" fill="#605875" data-original="#d2dcfd" class="" opacity="1"></path><path d="M140 369.999H90L80 450h70z" style="fill-rule:evenodd;clip-rule:evenodd;" fill="#544d66" data-original="#93b2f4" class="" opacity="1"></path><path d="M10 450v50h490v-50H10z" style="fill-rule:evenodd;clip-rule:evenodd;" fill="#4a4359" data-original="#fde0be" class="" opacity="1"></path><path d="M211.028 63.714c15.339 0 27.905 12.557 27.905 27.905v64.152c0 15.343-12.558 27.905-27.905 27.905h-66.159L104.123 220v-36.324H41.838c-15.348 0-27.905-12.557-27.905-27.905V91.619c0-15.348 12.566-27.905 27.905-27.905h169.19z" style="fill-rule:evenodd;clip-rule:evenodd;" fill="#80dc60" data-original="#b1d952" class="" opacity="1"></path><path d="M211.028 63.714c15.339 0 27.905 12.557 27.905 27.905v64.152a27.667 27.667 0 0 1-3.907 14.191h-27.188c-37.422 0-67.905-30.483-67.905-67.905V63.714h71.095z" style="fill-rule:evenodd;clip-rule:evenodd;" fill="#68ad50" data-original="#91b706" class="" opacity="1"></path><path d="M179.933 102.057c0 15.343 12.557 27.905 27.905 27.905H273.997l40.747 36.324v-36.324h62.284c15.348 0 27.905-12.557 27.905-27.905V37.905c0-15.348-12.566-27.905-27.905-27.905h-169.19c-15.339 0-27.905 12.566-27.905 27.905v64.152z" style="fill-rule:evenodd;clip-rule:evenodd;" fill="#ffffff" data-original="#ffffff" class=""></path><path d="M410.148 280c-41.249 0-75 34.205-75 76.01v33.989h-22.402c-16.568 0-30 13.432-30 30 0 16.569 13.432 30 30 30h172.402v-93.99c0-41.756-33.669-75.928-74.852-76.01l-.148.001z" style="fill-rule:evenodd;clip-rule:evenodd;" fill="#e50304" data-original="#67ccd1" class="" opacity="1"></path><path d="M10 450h490v50H10zM80.467 446.261 90 369.999h50l9.626 77.009" style="fill-rule:evenodd;clip-rule:evenodd;stroke-width:20;stroke-linecap:round;stroke-linejoin:round;stroke-miterlimit:2.6131;" fill-rule="evenodd" clip-rule="evenodd" fill="none" stroke="#000000" stroke-width="20" stroke-linecap="round" stroke-linejoin="round" stroke-miterlimit="2.6131" data-original="#052a75" class="" opacity="1"></path><path d="M81.25 399.999H20v-130h190v130h-61.249" style="fill-rule:evenodd;clip-rule:evenodd;stroke-width:20;stroke-linecap:round;stroke-linejoin:round;stroke-miterlimit:2.6131;" fill-rule="evenodd" clip-rule="evenodd" fill="none" stroke="#000000" stroke-width="20" stroke-linecap="round" stroke-linejoin="round" stroke-miterlimit="2.6131" data-original="#052a75" class="" opacity="1"></path><circle cx="410.148" cy="224.999" r="55" style="fill-rule:evenodd;clip-rule:evenodd;stroke-width:20;stroke-linecap:round;stroke-linejoin:round;stroke-miterlimit:2.6131;" fill-rule="evenodd" clip-rule="evenodd" fill="none" stroke="#000000" stroke-width="20" stroke-linecap="round" stroke-linejoin="round" stroke-miterlimit="2.6131" data-original="#052a75" class="" opacity="1"></circle><path d="M485 445v-88.99c0-41.806-33.75-76.01-75-76.01h0c-41.249 0-75 34.205-75 76.01v28.061" style="fill-rule:evenodd;clip-rule:evenodd;stroke-width:20;stroke-linecap:round;stroke-linejoin:round;stroke-miterlimit:2.6131;" fill-rule="evenodd" clip-rule="evenodd" fill="none" stroke="#000000" stroke-width="20" stroke-linecap="round" stroke-linejoin="round" stroke-miterlimit="2.6131" data-original="#052a75" class="" opacity="1"></path><path d="m440 387.03-26.906 45.811c-5.819 9.908-14.254 17.082-26.792 17.158m-73.741.001c-16.552-.02-29.964-13.444-29.964-30 0-16.568 13.432-30 30-30h56.33l19.275-33.386M410 280h-72.504l-28.165-48.783c-8.284-14.349-26.632-19.265-40.981-10.981s-19.265 26.632-10.981 40.981l36.75 63.653c6.325 10.956 16.807 14.799 28.358 14.8h12.873M314.743 129.962h62.284c15.348 0 27.905-12.557 27.905-27.905V37.905c0-15.348-12.566-27.905-27.905-27.905h-169.19c-15.339 0-27.905 12.566-27.905 27.905v64.152c0 15.343 12.557 27.905 27.905 27.905h66.159l40.747 36.324v-36.324z" style="fill-rule:evenodd;clip-rule:evenodd;stroke-width:20;stroke-linecap:round;stroke-linejoin:round;stroke-miterlimit:2.6131;" fill-rule="evenodd" clip-rule="evenodd" fill="none" stroke="#000000" stroke-width="20" stroke-linecap="round" stroke-linejoin="round" stroke-miterlimit="2.6131" data-original="#052a75" class="" opacity="1"></path><path d="M238.933 134.962v20.809c0 15.343-12.558 27.905-27.905 27.905h-66.159L104.123 220v-36.324H41.838c-15.348 0-27.905-12.557-27.905-27.905V91.619c0-15.348 12.566-27.905 27.905-27.905h133.095" style="fill-rule:evenodd;clip-rule:evenodd;stroke-width:20;stroke-linecap:round;stroke-linejoin:round;stroke-miterlimit:2.6131;" fill-rule="evenodd" clip-rule="evenodd" fill="none" stroke="#000000" stroke-width="20" stroke-linecap="round" stroke-linejoin="round" stroke-miterlimit="2.6131" data-original="#052a75" class="" opacity="1"></path><path d="M337.444 69.981h-.007M292.444 69.981h-.008M247.429 69.981h-.008" style="fill-rule:evenodd;clip-rule:evenodd;stroke-width:20;stroke-linecap:round;stroke-linejoin:round;stroke-miterlimit:2.6131;" fill-rule="evenodd" clip-rule="evenodd" fill="none" stroke="#287dc9" stroke-width="20" stroke-linecap="round" stroke-linejoin="round" stroke-miterlimit="2.6131" data-original="#6864f7" opacity="1"></path></g></svg>