<svg xmlns="http://www.w3.org/2000/svg" version="1.1" xmlns:xlink="http://www.w3.org/1999/xlink" width="512" height="512" x="0" y="0" viewBox="0 0 512 512" style="enable-background:new 0 0 512 512" xml:space="preserve" class=""><g><path d="M504.5 125.645c0-40.302-32.661-72.964-72.964-72.964H131.854c-71.643 63.087-69.522 220.272 28.055 271.091 114.464 40.137 229.305 42.418 344.59 0V125.645z" style="" fill="#e50304" data-original="#65dbfd" class="" opacity="1"></path><path d="M131.855 52.682H80.464C40.161 52.682 7.5 85.343 7.5 125.645v198.127c49.999 25.607 100.827 24.818 152.41 0-9.919-17.866-18.456-36.962-25.368-57.151-25.239-73.725-24.43-149.201-2.687-213.939z" style="" fill="#ba0001" data-original="#05c9fb" class="" opacity="1"></path><path d="m308.712 399.076 15.061 52.712c-45.182 17.403-90.364 17.403-135.545 0l15.061-52.712c35.14-20.75 70.282-20.75 105.423 0z" style="" fill="#4a4359" data-original="#4a4359" class=""></path><path d="M368.954 478.144c0-14.559-11.797-26.356-26.356-26.356H229.643c-33.635 0-36.271 11.797-36.271 26.356 0 14.559 3.012 26.356 36.271 26.356h112.955c14.546 0 26.356-11.797 26.356-26.356z" style="" fill="#605875" data-original="#605875" class=""></path><path d="M203.288 478.144c0-14.545 11.797-26.356 26.356-26.356h-60.242c-14.545 0-26.356 11.797-26.356 26.356 0 14.559 11.797 26.356 26.356 26.356h60.242c-14.559 0-26.356-11.797-26.356-26.356z" style="" fill="#544d66" data-original="#544d66" class=""></path><path d="M431.536 399.076c40.302 0 72.964-32.661 72.964-72.964v-2.339H159.91c-9.877 34.107 12.61 58.672 56.832 75.303h214.794z" style="" fill="#605875" data-original="#605875" class=""></path><path d="M7.5 323.773v2.339c0 40.302 32.661 72.964 72.964 72.964h136.277c-21.796-21.621-41.064-46.902-56.832-75.303H7.5z" style="" fill="#544d66" data-original="#544d66" class=""></path><path d="M229.303 7.5c16.099 37.114 17.61 72.853 0 106.79h-19.569c-11.878 0-21.507-9.619-21.507-21.497V29.006c0-11.878 9.629-21.507 21.507-21.507h19.569zM368.954 73.285c0 18.274-19.739 29.73-35.603 20.663l-21.898-12.51c-17.708-13.694-17.714-27.386 0-41.075l21.898-12.52c15.864-9.066 35.603 2.39 35.603 20.663v24.779z" style="" fill="#d9d9fb" data-original="#6072ef" class="" opacity="1"></path><path d="M311.453 92.793c0 11.878-9.629 21.497-21.507 21.497h-60.644V7.5h60.644c11.878 0 21.507 9.629 21.507 21.507v63.786z" style="" fill="#e9e9fb" data-original="#858fff" class="" opacity="1"></path><circle cx="384.015" cy="210.818" r="75.303" style="" transform="rotate(-45.001 384.014 210.824)" fill="#e9e9fb" data-original="#e9e9fb" class="" opacity="1"></circle><path d="M444.258 256c-13.735 18.294-35.613 30.121-60.242 30.121-24.629 0-46.507-11.828-60.242-30.121 13.735-18.294 35.613-30.121 60.242-30.121 24.628 0 46.506 11.827 60.242 30.121z" style="" fill="#68ad50" data-original="#88d16f" class="" opacity="1"></path><circle cx="384.015" cy="195.758" r="30.121" style="" transform="rotate(-80.781 384.019 195.751)" fill="#eb9c8d" data-original="#eb9c8d" class=""></circle><path d="M203.288 210.818c0-46.319-41.411-81.655-87.243-74.351-20.559 49.142-20.033 100.252 25.34 148.441 35.19-6.326 61.903-37.08 61.903-74.09z" style="" fill="#e9e9fb" data-original="#e9e9fb" class="" opacity="1"></path><path d="M116.045 136.467c-35.912 5.723-63.363 36.828-63.363 74.351 0 41.583 33.716 75.303 75.303 75.303 4.576 0 9.049-.431 13.401-1.213a358.123 358.123 0 0 1-6.844-18.287c-14.938-43.634-20.748-87.882-18.497-130.154z" style="" fill="#d9d9fb" data-original="#d9d9fb" class="" opacity="1"></path><path d="M188.227 256c-13.735-18.294-35.613-30.121-60.242-30.121a76.56 76.56 0 0 0-4.71.147l-3.076 15.097a38.07 38.07 0 0 0 12.782 36.722l8.413 7.084c19.069-3.428 35.65-14.035 46.833-28.929z" style="" fill="#4e98ec" data-original="#fb7669" class="" opacity="1"></path><path d="M123.275 226.025c-22.696 1.401-42.68 12.856-55.533 29.975 13.735 18.294 35.613 30.121 60.243 30.121 4.576 0 9.057-.41 13.409-1.192a358.32 358.32 0 0 1-6.852-18.307 356.186 356.186 0 0 1-11.267-40.597z" style="" fill="#287dc9" data-original="#fa5757" class="" opacity="1"></path><path d="M127.985 165.636c-16.565 0-30.121 13.435-30.121 30.121 0 14.993 10.952 27.42 25.293 29.731 1.573.253 3.184.39 4.829.39 16.637 0 30.121-13.484 30.121-30.121-.001-16.636-13.485-30.121-30.122-30.121z" style="" fill="#ffcebf" data-original="#ffcebf" class=""></path><path d="M188.23 52.68H80.46c-40.3 0-72.96 32.66-72.96 72.97v200.46c0 40.3 32.66 72.97 72.96 72.97h122.83M504.5 185.67v140.44c0 40.3-32.66 72.97-72.96 72.97H308.71M368.95 52.68h62.59c40.3 0 72.96 32.66 72.96 72.97v25.02" style="stroke-width:15;stroke-linecap:round;stroke-linejoin:round;stroke-miterlimit:10;" fill="none" stroke="#000000" stroke-width="15" stroke-linecap="round" stroke-linejoin="round" stroke-miterlimit="10" data-original="#000000" class=""></path><path d="m188.227 451.788 15.061-52.712h105.424l15.061 52.712M342.599 451.788c14.559 0 26.356 11.797 26.356 26.356 0 14.545-11.797 26.356-26.356 26.356H169.402c-14.559 0-26.356-11.797-26.356-26.356 0-14.545 11.797-26.356 26.356-26.356h173.197zM313.55 323.77H7.5M504.5 323.77H348.55M248.47 361.424h15.06M323.773 256c13.735-18.294 35.613-30.121 60.242-30.121 24.629 0 46.507 11.828 60.242 30.121" style="stroke-width:15;stroke-linecap:round;stroke-linejoin:round;stroke-miterlimit:10;" fill="none" stroke="#000000" stroke-width="15" stroke-linecap="round" stroke-linejoin="round" stroke-miterlimit="10" data-original="#000000" class=""></path><circle cx="384.015" cy="195.758" r="30.121" style="stroke-width:15;stroke-linecap:round;stroke-linejoin:round;stroke-miterlimit:10;" fill="none" stroke="#000000" stroke-width="15" stroke-linecap="round" stroke-linejoin="round" stroke-miterlimit="10" data-original="#000000" class=""></circle><path d="M311.453 81.438v11.356c0 11.878-9.629 21.497-21.507 21.497h-80.213c-11.878 0-21.507-9.619-21.507-21.497V29.007c0-11.878 9.629-21.507 21.507-21.507h80.213c11.878 0 21.507 9.629 21.507 21.507v11.356M368.954 73.285c0 18.274-19.739 29.73-35.603 20.663l-21.898-12.51V40.362l21.898-12.52c15.864-9.066 35.603 2.39 35.603 20.663v24.78zM229.303 7.5v106.79M308.712 210.818c0-41.587 33.716-75.303 75.303-75.303 41.587 0 75.303 33.716 75.303 75.303 0 16.958-5.603 32.601-15.061 45.182-13.735 18.294-35.613 30.121-60.242 30.121-41.585 0-75.303-33.717-75.303-75.303zM67.742 256c13.735-18.294 35.613-30.121 60.243-30.121 24.629 0 46.507 11.828 60.242 30.121" style="stroke-width:15;stroke-linecap:round;stroke-linejoin:round;stroke-miterlimit:10;" fill="none" stroke="#000000" stroke-width="15" stroke-linecap="round" stroke-linejoin="round" stroke-miterlimit="10" data-original="#000000" class=""></path><circle cx="127.985" cy="195.758" r="30.121" style="stroke-width:15;stroke-linecap:round;stroke-linejoin:round;stroke-miterlimit:10;" fill="none" stroke="#000000" stroke-width="15" stroke-linecap="round" stroke-linejoin="round" stroke-miterlimit="10" data-original="#000000" class=""></circle><path d="M67.742 256c-9.458-12.581-15.061-28.224-15.061-45.182 0-41.587 33.716-75.303 75.303-75.303 41.587 0 75.303 33.716 75.303 75.303 0 16.958-5.603 32.601-15.061 45.182-13.735 18.294-35.613 30.121-60.242 30.121-24.628 0-46.506-11.827-60.242-30.121z" style="stroke-width:15;stroke-linecap:round;stroke-linejoin:round;stroke-miterlimit:10;" fill="none" stroke="#000000" stroke-width="15" stroke-linecap="round" stroke-linejoin="round" stroke-miterlimit="10" data-original="#000000" class=""></path></g></svg>