<svg xmlns="http://www.w3.org/2000/svg" version="1.1" xmlns:xlink="http://www.w3.org/1999/xlink" width="512" height="512" x="0" y="0" viewBox="0 0 24 24" style="enable-background:new 0 0 512 512" xml:space="preserve" class=""><g><g fill="#396ce8"><path d="M12 18a1 1 0 0 1-.707-.293l-4-4a1 1 0 1 1 1.414-1.414L12 15.586l3.293-3.293a1 1 0 0 1 1.414 1.414l-4 4A1 1 0 0 1 12 18z" fill="#f2f2f2" opacity="1" data-original="#396ce8" class=""></path><path d="M12 12a1 1 0 0 1-.707-.293l-4-4a1 1 0 1 1 1.414-1.414L12 9.586l3.293-3.293a1 1 0 1 1 1.414 1.414l-4 4A1 1 0 0 1 12 12z" opacity="1" fill="#f2f2f2" data-original="#396ce840" class=""></path></g></g></svg>